<svg width="265" height="271" viewBox="0 0 265 271" fill="none" xmlns="http://www.w3.org/2000/svg">
<g clip-path="url(#clip0_195_382)">
<path d="M113.626 87.8347L111.27 87.7313C111.41 84.5175 112.821 56.1821 119.023 51.0133C119.417 50.6613 119.881 50.3975 120.385 50.2397C120.889 50.0819 121.421 50.0336 121.945 50.098C125.638 50.6123 129.669 56.4711 134.272 68.0094C137.549 76.2245 139.911 84.4157 139.934 84.4976L137.668 85.149C137.645 85.0682 135.31 76.976 132.076 68.8693C126.364 54.5558 122.861 52.6084 121.621 52.4358C121.421 52.4142 121.22 52.4382 121.031 52.5059C120.843 52.5736 120.672 52.6834 120.532 52.8268C115.956 56.6404 113.995 79.3903 113.626 87.8347Z" fill="black"/>
<path d="M92.8098 72.5461L90.4512 131.731L168.272 123.343L158.652 66.2012L92.8098 72.5461Z" fill="#FFBA49"/>
<path d="M158.652 66.2012L152.928 66.7527L160.547 116.86L90.7238 124.9L90.4512 131.731L168.272 123.343L158.652 66.2012Z" fill="#FFA113"/>
<path d="M200.696 167.972L197.46 167.612C197.487 167.358 200.175 142.039 191.459 132.571C190.435 131.42 189.163 130.515 187.74 129.925C186.317 129.335 184.778 129.075 183.24 129.165C164.256 129.705 155.329 162.307 155.241 162.636L152.096 161.795C153.849 155.706 156.284 149.836 159.356 144.295C165.97 132.52 174.197 126.162 183.148 125.907C185.152 125.805 187.153 126.152 189.006 126.923C190.859 127.694 192.516 128.87 193.856 130.365C203.573 140.925 200.818 166.872 200.696 167.972Z" fill="#FFBA49"/>
<path d="M142.945 144.752L211.64 152.904L210.575 261.91L118.875 250.981L142.945 144.752Z" fill="#DB3022"/>
<path d="M211.64 152.904L204.837 152.097L201.523 252.956L120.167 245.28L118.875 250.981L210.575 261.91L211.64 152.904Z" fill="#D10505"/>
<path d="M228.855 187.548C231.984 188.203 234.964 185.701 235.513 181.953C236.097 182.95 236.68 183.948 237.264 184.947C236.716 188.694 233.733 191.197 230.609 190.541C230.025 189.542 229.441 188.544 228.855 187.548Z" fill="#FFBA49"/>
<path d="M136.465 267.716C139.593 268.371 142.574 265.868 143.122 262.121C143.706 263.118 144.289 264.115 144.873 265.114C144.326 268.861 141.343 271.366 138.218 270.71C137.634 269.71 137.05 268.712 136.465 267.716Z" fill="#9B9B9B"/>
<path d="M235.843 124.814C237.155 128.278 240.561 129.817 243.454 128.245C243.096 129.386 242.737 130.527 242.377 131.668C239.484 133.236 236.078 131.7 234.768 128.235C235.128 127.096 235.487 125.956 235.843 124.814Z" fill="#FF5C00"/>
<path d="M215.599 100.213C216.127 96.4614 214.017 92.9088 210.885 92.2768C211.713 91.5697 212.542 90.8629 213.372 90.1562C216.502 90.7883 218.613 94.3424 218.086 98.0929C217.258 98.8001 216.429 99.507 215.599 100.213Z" fill="#021193"/>
<path d="M27.5988 85.0708C28.1268 81.3188 26.0171 77.7661 22.8848 77.134C23.713 76.427 24.5421 75.7202 25.372 75.0137C28.5019 75.6456 30.6129 79.1997 30.0861 82.9503C29.2578 83.6574 28.4287 84.3642 27.5988 85.0708Z" fill="#FF5C00"/>
<path d="M91.6632 218.018C92.1913 214.265 90.0814 210.712 86.9492 210.08C87.7775 209.373 88.6065 208.667 89.4364 207.96C92.5663 208.592 94.6772 212.146 94.1504 215.897C93.3222 216.604 92.4931 217.31 91.6632 218.018Z" fill="#FF5C00"/>
<path d="M255.979 77.4159C259.087 78.2003 262.134 75.8184 262.789 72.0938C263.345 73.1142 263.901 74.1355 264.456 75.1575C263.803 78.8784 260.753 81.2618 257.647 80.4796C257.09 79.4592 256.534 78.4379 255.979 77.4159Z" fill="#FFBA49"/>
<path d="M7.40072 123.507C6.28677 119.944 2.97431 118.137 0 119.473C0.420738 118.365 0.842096 117.256 1.26407 116.145C4.23592 114.81 7.55022 116.616 8.66479 120.178C8.24407 121.287 7.82271 122.397 7.40072 123.507Z" fill="#FFBA49"/>
<path d="M84.5935 166.912C84.813 170.707 87.5594 173.57 90.7266 173.305C90.0587 174.227 89.3896 175.144 88.7229 176.066C85.5545 176.327 82.8092 173.463 82.5898 169.668C83.2578 168.751 83.9257 167.832 84.5935 166.912Z" fill="#DB3022"/>
<path d="M62.209 97.9676C65.3545 97.4447 67.55 93.9649 67.1123 90.1963C67.9249 90.9322 68.7363 91.6672 69.5465 92.4012C69.9829 96.1713 67.7887 99.6489 64.6432 100.174C63.8329 99.438 63.0215 98.7025 62.209 97.9676Z" fill="#021193"/>
<path d="M190.474 51.7539C186.396 51.8889 189.328 59.076 185.248 59.214C184.469 58.4303 183.69 57.6467 182.91 56.863C186.99 56.7272 184.058 49.5402 188.137 49.4023C188.917 50.186 189.696 50.9698 190.474 51.7539Z" fill="#FF5C00"/>
<path d="M197.886 240.653C193.916 239.526 195.203 247.375 191.231 246.25C190.647 245.252 190.062 244.254 189.479 243.256C193.45 244.382 192.162 236.533 196.135 237.66C196.718 238.658 197.302 239.656 197.886 240.653Z" fill="#FFBA49"/>
<path d="M79.8202 250.871C77.016 254.425 83.3311 257.027 80.5268 260.578C79.514 260.682 78.5001 260.79 77.4874 260.893C80.2917 257.342 73.9765 254.742 76.7808 251.189C77.7948 251.085 78.8079 250.979 79.8202 250.871Z" fill="#021193"/>
<path d="M170.658 5.53628C166.665 6.55242 170.627 12.992 166.637 14.006C165.754 13.4022 164.867 12.8006 163.984 12.1954C167.976 11.182 164.011 4.74471 168.004 3.72852C168.889 4.33376 169.773 4.93635 170.658 5.53628Z" fill="#DB3022"/>
<path d="M42.5212 26.7041C44.4851 30.9913 48.4883 24.5879 50.4493 28.8737C50.2215 30.0603 49.9966 31.2513 49.7676 32.4386C47.8066 28.1514 43.8057 34.5569 41.8418 30.2697C42.0702 29.0795 42.2967 27.8909 42.5212 26.7041Z" fill="#9B9B9B"/>
<path d="M8.66406 195.269C9.19085 195.174 9.66744 194.896 10.0106 194.485C10.3538 194.074 10.5418 193.555 10.5418 193.019C10.5418 192.484 10.3538 191.965 10.0106 191.554C9.66744 191.142 9.19085 190.865 8.66406 190.77" fill="black"/>
<path d="M221.798 21.4433C220.082 21.4433 218.686 19.7705 218.686 17.7143C218.686 15.658 220.082 13.9854 221.798 13.9854C223.514 13.9854 224.91 15.6581 224.91 17.7143C224.91 19.7705 223.514 21.4433 221.798 21.4433ZM221.798 15.4645C221.253 15.5184 220.751 15.7844 220.399 16.2051C220.048 16.6259 219.876 17.1678 219.92 17.7143C219.87 17.9894 219.882 18.2721 219.953 18.5424C220.024 18.8127 220.154 19.0641 220.333 19.2786C220.512 19.4932 220.736 19.6658 220.989 19.7843C221.243 19.9027 221.518 19.9641 221.798 19.9641C222.077 19.9641 222.353 19.9027 222.606 19.7843C222.859 19.6658 223.083 19.4932 223.262 19.2786C223.442 19.0641 223.571 18.8127 223.643 18.5424C223.714 18.2721 223.725 17.9894 223.676 17.7143C223.72 17.1678 223.548 16.6259 223.196 16.2052C222.845 15.7844 222.343 15.5184 221.798 15.4645V15.4645Z" fill="black"/>
<path d="M40.6182 162.721C38.902 162.721 37.5059 161.049 37.5059 158.992C37.5059 156.936 38.902 155.264 40.6182 155.264C42.3343 155.264 43.7305 156.936 43.7305 158.992C43.7305 161.049 42.3343 162.721 40.6182 162.721ZM40.6182 156.743C40.0914 156.838 39.6148 157.116 39.2716 157.527C38.9284 157.938 38.7404 158.457 38.7404 158.993C38.7404 159.528 38.9284 160.047 39.2716 160.458C39.6148 160.869 40.0914 161.147 40.6182 161.242C41.145 161.147 41.6215 160.869 41.9647 160.458C42.3079 160.047 42.496 159.528 42.496 158.993C42.496 158.457 42.3079 157.938 41.9647 157.527C41.6215 157.116 41.145 156.838 40.6182 156.743V156.743Z" fill="black"/>
</g>
<defs>
<clipPath id="clip0_195_382">
<rect width="264.457" height="270.814" fill="white"/>
</clipPath>
</defs>
</svg>
