<svg width="56" height="52" viewBox="0 0 56 52" fill="none" xmlns="http://www.w3.org/2000/svg">
<ellipse cx="27.8921" cy="25.9942" rx="27.8921" ry="25.9942" fill="#182243"/>
<path d="M16 39.119V12.6508C16 10.6345 17.535 9 19.4286 9H38.9714C39.5395 9 40 9.49036 40 10.0952V41.8571" stroke="white" stroke-width="2" stroke-linecap="round"/>
<path d="M16 39.119V12.6508C16 10.6345 17.535 9 19.4286 9H38.9714C39.5395 9 40 9.49036 40 10.0952V41.8571" stroke="white" stroke-width="2" stroke-linecap="round"/>
<path d="M22.8574 16.3018H33.1431" stroke="white" stroke-width="2" stroke-linecap="round"/>
<path d="M22.8574 16.3018H33.1431" stroke="white" stroke-width="2" stroke-linecap="round"/>
<path d="M18.5713 30.9048H39.9999" stroke="white" stroke-width="2" stroke-linecap="round"/>
<path d="M18.5713 30.9048H39.9999" stroke="white" stroke-width="2" stroke-linecap="round"/>
<path d="M18.5713 36.3809H39.9999" stroke="white" stroke-width="2" stroke-linecap="round"/>
<path d="M18.5713 36.3809H39.9999" stroke="white" stroke-width="2" stroke-linecap="round"/>
<path d="M18.5713 41.8569H39.9999" stroke="white" stroke-width="2" stroke-linecap="round"/>
<path d="M18.5713 41.8569H39.9999" stroke="white" stroke-width="2" stroke-linecap="round"/>
<path d="M18.5714 36.381C16.8571 36.381 16 35.155 16 33.6429C16 32.1307 16.8571 30.9048 18.5714 30.9048" stroke="white" stroke-width="2" stroke-linecap="round" stroke-linejoin="round"/>
<path d="M18.5714 36.381C16.8571 36.381 16 35.155 16 33.6429C16 32.1307 16.8571 30.9048 18.5714 30.9048" stroke="white" stroke-width="2" stroke-linecap="round" stroke-linejoin="round"/>
<path d="M18.5714 41.8571C16.8571 41.8571 16 40.6311 16 39.119C16 37.6068 16.8571 36.3809 18.5714 36.3809" stroke="white" stroke-width="2" stroke-linecap="round" stroke-linejoin="round"/>
<path d="M18.5714 41.8571C16.8571 41.8571 16 40.6311 16 39.119C16 37.6068 16.8571 36.3809 18.5714 36.3809" stroke="white" stroke-width="2" stroke-linecap="round" stroke-linejoin="round"/>
</svg>
