<svg width="56" height="52" viewBox="0 0 56 52" fill="none" xmlns="http://www.w3.org/2000/svg">
<ellipse cx="27.8921" cy="25.9942" rx="27.8921" ry="25.9942" fill="#182243"/>
<path d="M36.333 26.7956L36.3497 26.7759" stroke="white" stroke-width="2" stroke-linecap="round" stroke-linejoin="round"/>
<path d="M19.6667 33.8889H36.3333M18 21.4444V10.0667C18 9.47756 18.4477 9 19 9H37C37.5523 9 38 9.47756 38 10.0667V21.4444M43 39.9333V28.5556C43 24.6283 40.0152 21.4444 36.3333 21.4444H19.6667C15.9848 21.4444 13 24.6283 13 28.5556V39.9333C13 40.5225 13.4477 41 14 41H42C42.5523 41 43 40.5225 43 39.9333Z" stroke="white" stroke-width="2" stroke-linecap="round" stroke-linejoin="round"/>
</svg>
