<svg width="56" height="52" viewBox="0 0 56 52" fill="none" xmlns="http://www.w3.org/2000/svg">
<ellipse cx="27.8921" cy="25.9942" rx="27.8921" ry="25.9942" fill="#182243"/>
<path d="M10 39.0001V37.2942C10 30.6993 15.3463 25.353 21.9412 25.353C28.5361 25.353 33.8824 30.6993 33.8824 37.2942V39.0001" stroke="white" stroke-width="2" stroke-linecap="round"/>
<path d="M30.4707 28.7648C30.4707 24.0541 34.2895 20.2354 39.0001 20.2354C43.7107 20.2354 47.5295 24.0541 47.5295 28.7648V29.6177" stroke="white" stroke-width="2" stroke-linecap="round"/>
<path d="M21.9412 25.3531C25.7097 25.3531 28.7647 22.298 28.7647 18.5296C28.7647 14.7611 25.7097 11.7061 21.9412 11.7061C18.1727 11.7061 15.1177 14.7611 15.1177 18.5296C15.1177 22.298 18.1727 25.3531 21.9412 25.3531Z" stroke="white" stroke-width="2" stroke-linecap="round" stroke-linejoin="round"/>
<path d="M39 20.2353C41.8264 20.2353 44.1176 17.944 44.1176 15.1176C44.1176 12.2913 41.8264 10 39 10C36.1735 10 33.8823 12.2913 33.8823 15.1176C33.8823 17.944 36.1735 20.2353 39 20.2353Z" stroke="white" stroke-width="2" stroke-linecap="round" stroke-linejoin="round"/>
</svg>
