<svg width="56" height="52" viewBox="0 0 56 52" fill="none" xmlns="http://www.w3.org/2000/svg">
<ellipse cx="27.8921" cy="25.9942" rx="27.8921" ry="25.9942" fill="#182243"/>
<path d="M42.4041 25.5929V15.845C42.4041 15.5969 42.288 15.3589 42.0812 15.1835L36.2949 10.274C36.0881 10.0986 35.8077 10 35.5153 10H14.1027C13.4937 10 13 10.4189 13 10.9356V40.2501C13 40.7669 13.4937 41.1857 14.1027 41.1857H25.8643" stroke="white" stroke-width="2" stroke-linecap="round" stroke-linejoin="round"/>
<path d="M20.3511 22.4744H35.0531M20.3511 16.2373H27.7021M20.3511 28.7116H25.8644" stroke="white" stroke-width="2" stroke-linecap="round" stroke-linejoin="round"/>
<path d="M38.6442 33.295L40.482 31.7357C41.2867 31.0529 42.5916 31.0529 43.3963 31.7357C44.2011 32.4186 44.2011 33.5256 43.3963 34.2085L41.5585 35.7677M38.6442 33.295L33.1473 37.959C32.8718 38.1927 32.691 38.4948 32.6311 38.8213L32.1851 41.2482L35.0452 40.8699C35.4302 40.8189 35.786 40.6655 36.0614 40.4317L41.5585 35.7677M38.6442 33.295L41.5585 35.7677" stroke="white" stroke-width="2" stroke-linecap="round" stroke-linejoin="round"/>
<path d="M35.0532 10V15.3016C35.0532 15.8183 35.5468 16.2371 36.1559 16.2371H42.4043" stroke="white" stroke-width="2" stroke-linecap="round" stroke-linejoin="round"/>
</svg>
