<svg width="32" height="32" viewBox="0 0 32 32" fill="none" xmlns="http://www.w3.org/2000/svg">
<path d="M31.4211 13.3213C31.071 13.1763 30.6677 13.2563 30.3997 13.5247C29.3826 14.5417 27.9514 15.125 26.4734 15.125H26.3125V12.616C28.5276 11.5608 30.0625 9.30005 30.0625 6.6875C30.0625 6.30835 29.8342 5.96655 29.4836 5.82129C29.1335 5.67627 28.7302 5.75635 28.4622 6.02466C27.6492 6.8374 26.6248 7.36108 25.5134 7.54761L18.7544 3.38257C18.7925 3.19849 18.8125 3.00781 18.8125 2.8125C18.8125 1.26172 17.5508 0 16 0C14.4492 0 13.1875 1.26172 13.1875 2.8125C13.1875 3.00781 13.2075 3.19849 13.2456 3.38257L6.48657 7.54761C5.37524 7.36133 4.35083 6.83765 3.53784 6.02466C3.26978 5.75659 2.86646 5.67627 2.51611 5.82129C2.16602 5.96655 1.9375 6.30835 1.9375 6.6875C1.9375 9.30005 3.47241 11.5608 5.6875 12.616V15.125H5.52661C4.04858 15.125 2.61743 14.5417 1.60034 13.5247C1.33228 13.2566 0.928955 13.1763 0.578857 13.3213C0.228516 13.4666 0 13.8083 0 14.1875C0 16.8105 1.56177 19.0786 3.8125 20.1284V26.5361C2.72119 26.9233 1.9375 27.9653 1.9375 29.1875V31.0625C1.9375 31.5803 2.35718 32 2.875 32H29.125C29.6428 32 30.0625 31.5803 30.0625 31.0625V29.1875C30.0625 27.9653 29.2788 26.9233 28.1875 26.5361V20.1284C30.4382 19.0786 32 16.8105 32 14.1875C32 13.8083 31.7717 13.4666 31.4211 13.3213V13.3213ZM16 5.625C16.676 5.625 17.2971 5.38501 17.7827 4.98608L22.0649 7.625H9.93506L14.2173 4.98608C14.7029 5.38501 15.324 5.625 16 5.625V5.625ZM16 1.875C16.5168 1.875 16.9375 2.29565 16.9375 2.8125C16.9375 3.32935 16.5168 3.75 16 3.75C15.4832 3.75 15.0625 3.32935 15.0625 2.8125C15.0625 2.29565 15.4832 1.875 16 1.875V1.875ZM4.33228 8.83154C5.28247 9.26953 6.32422 9.5 7.40161 9.5H24.5984C25.6755 9.5 26.7175 9.26929 27.6677 8.83154C26.8882 10.3408 25.3127 11.375 23.5 11.375H8.5C6.68726 11.375 5.11182 10.3408 4.33228 8.83154V8.83154ZM7.5625 13.1829C7.8689 13.2268 8.18164 13.25 8.5 13.25H23.5C23.8184 13.25 24.1311 13.2268 24.4375 13.1829V15.125H7.5625V13.1829ZM3.8125 29.1875C3.8125 28.6707 4.23315 28.25 4.75 28.25H12.6082L11.6707 30.125H3.8125V29.1875ZM14.7043 28.25H17.2957L18.2332 30.125H13.7668L14.7043 28.25ZM16.9375 26.375H15.0625V24.5H16.9375V26.375ZM28.1875 30.125H20.3293L19.3918 28.25H27.25C27.7668 28.25 28.1875 28.6707 28.1875 29.1875V30.125ZM26.3125 26.375H18.8125V23.5625C18.8125 23.0447 18.3928 22.625 17.875 22.625H14.125C13.6072 22.625 13.1875 23.0447 13.1875 23.5625V26.375H5.6875V20.6841C5.9939 20.7273 6.30664 20.75 6.625 20.75H25.375C25.6934 20.75 26.0061 20.7273 26.3125 20.6841V26.375ZM25.375 18.875H6.625C4.78198 18.875 3.18091 17.834 2.39355 16.3162C3.36523 16.7607 4.43726 17 5.52661 17H26.4734C27.5627 17 28.6348 16.7607 29.6062 16.3162C28.8191 17.834 27.218 18.875 25.375 18.875Z" fill="#525F7F"/>
<path d="M10.375 22.625H8.5C7.98218 22.625 7.5625 23.0447 7.5625 23.5625C7.5625 24.0803 7.98218 24.5 8.5 24.5H10.375C10.8928 24.5 11.3125 24.0803 11.3125 23.5625C11.3125 23.0447 10.8928 22.625 10.375 22.625Z" fill="#525F7F"/>
<path d="M23.5 22.625H21.625C21.1072 22.625 20.6875 23.0447 20.6875 23.5625C20.6875 24.0803 21.1072 24.5 21.625 24.5H23.5C24.0178 24.5 24.4375 24.0803 24.4375 23.5625C24.4375 23.0447 24.0178 22.625 23.5 22.625Z" fill="#525F7F"/>
</svg>
