<svg width="30" height="30" viewBox="0 0 30 30" fill="none" xmlns="http://www.w3.org/2000/svg">
<g clip-path="url(#clip0_92_52)">
<path d="M14.9996 0C12.1018 0 9.74414 2.35764 9.74414 5.25545V15.5843C9.74414 18.4818 12.1018 20.8394 14.9996 20.8394C17.8974 20.8394 20.255 18.4982 20.255 15.6204V5.25545C20.255 2.35764 17.8974 0 14.9996 0ZM18.0649 15.6201C18.0649 17.2902 16.6897 18.6493 14.9996 18.6493C13.3095 18.6493 11.9339 17.2744 11.9339 15.5839V5.25545C11.9339 3.56496 13.3091 2.18977 14.9996 2.18977C16.6901 2.18977 18.0653 3.56496 18.0649 5.25545V15.6201Z" fill="#525F7F"/>
<path d="M16.095 23.978H13.9053V28.9051H16.095V23.978Z" fill="#525F7F"/>
<path d="M17.8828 27.8101H12.1164C11.5116 27.8101 11.0215 28.3002 11.0215 28.9049C11.0215 29.5097 11.5116 29.9998 12.1164 29.9998H17.8828C18.4876 29.9998 18.9777 29.5097 18.9777 28.9049C18.9777 28.3002 18.4876 27.8101 17.8828 27.8101Z" fill="#525F7F"/>
<path d="M23.2844 13.7593C22.6796 13.7593 22.1895 14.2494 22.1895 14.8542V15.7301C22.1895 19.6943 18.964 22.9199 14.9997 22.9199C11.0351 22.9199 7.80988 19.6944 7.80988 15.7301V14.8542C7.80988 14.2494 7.31975 13.7593 6.715 13.7593C6.11025 13.7593 5.62012 14.2494 5.62012 14.8542V15.7301C5.62012 20.902 9.82779 25.1096 14.9997 25.1096C20.1716 25.1096 24.3793 20.902 24.3793 15.7301V14.8542C24.3793 14.2495 23.8891 13.7593 23.2844 13.7593Z" fill="#525F7F"/>
</g>
<defs>
<clipPath id="clip0_92_52">
<rect width="30" height="30" fill="white"/>
</clipPath>
</defs>
</svg>
