<svg width="32" height="32" viewBox="0 0 32 32" fill="none" xmlns="http://www.w3.org/2000/svg">
<g clip-path="url(#clip0_92_70)">
<path d="M8.99817 26.9555C8.75824 26.9555 8.51831 26.8639 8.33531 26.6809C5.1161 23.4617 5.1161 18.2237 8.33531 15.0045C8.70137 14.6385 9.29498 14.6385 9.6611 15.0045C10.0272 15.3706 10.0272 15.9642 9.6611 16.3303C7.17295 18.8185 7.17295 22.867 9.6611 25.3551C10.0272 25.7211 10.0272 26.3148 9.6611 26.6809C9.47804 26.8639 9.23811 26.9555 8.99817 26.9555V26.9555Z" fill="white"/>
<path d="M12.5151 24.0636C12.2752 24.0636 12.0352 23.972 11.8522 23.789C10.2276 22.1644 10.2276 19.521 11.8522 17.8964C12.2183 17.5303 12.8119 17.5303 13.178 17.8964C13.5442 18.2624 13.5442 18.856 13.178 19.2222C12.2845 20.1157 12.2845 21.5697 13.178 22.4632C13.5442 22.8292 13.5442 23.4229 13.178 23.789C12.9949 23.9721 12.755 24.0636 12.5151 24.0636V24.0636Z" fill="white"/>
<path d="M5.47205 29.7686C5.23212 29.7686 4.99218 29.677 4.80918 29.494C0.0388658 24.7236 0.0388658 16.9617 4.80918 12.1913C5.1753 11.8252 5.76892 11.8252 6.13498 12.1913C6.5011 12.5573 6.5011 13.151 6.13498 13.5171C2.09572 17.5564 2.09572 24.1289 6.13498 28.1682C6.5011 28.5342 6.5011 29.1278 6.13498 29.494C5.95192 29.677 5.71199 29.7686 5.47205 29.7686Z" fill="white"/>
<path d="M29.8316 32C29.4744 32 29.1332 31.7948 28.9767 31.4481L27.7127 28.6494C27.5166 28.2151 27.0804 27.9393 26.6058 27.9482C24.9413 27.9772 22.897 28.008 21.8538 27.9874C20.7315 27.9652 20.0774 27.4887 19.7263 27.0929C19.2398 26.5446 19.0166 25.7954 19.0978 24.9835C19.1448 24.513 19.0177 24.3527 18.7645 24.0335C18.573 23.7921 18.3346 23.4917 18.2196 23.0638C18.0451 22.4142 18.3 21.7062 18.869 21.2601C18.8945 21.2403 18.921 21.2216 18.9483 21.2043L20.8321 20.0194L18.0167 18.9513C17.9927 18.9422 17.9691 18.932 17.9459 18.921C17.2734 18.6005 16.9012 17.8655 17.0406 17.1338L17.4048 15.222C17.4419 15.0271 17.399 14.8308 17.284 14.6691C17.169 14.5073 16.9976 14.4024 16.8012 14.3735L14.9478 14.1011C14.4349 14.0256 13.9952 13.7013 13.7716 13.2338C13.548 12.7663 13.5715 12.2205 13.8346 11.774L17.3671 5.77794C17.9045 4.86588 18.1165 3.78671 17.9641 2.73916L17.7217 1.07255C17.6472 0.560184 18.002 0.0843776 18.5145 0.0098785C19.0269 -0.0646206 19.5026 0.290313 19.5771 0.802682L19.8196 2.46929C20.0332 3.93802 19.736 5.45106 18.9826 6.72974L15.6919 12.3154L17.074 12.5185C17.7807 12.6225 18.3979 13.0004 18.8119 13.5823C19.2259 14.1643 19.3803 14.8713 19.2466 15.5729L18.9198 17.2885L22.0839 18.489C22.6418 18.7006 23.0252 19.2009 23.0844 19.7947C23.1437 20.3885 22.8667 20.9548 22.3616 21.2725L20.1 22.6951C20.1395 22.7499 20.1893 22.8127 20.2334 22.8683C20.5524 23.2704 21.0862 23.9432 20.9635 25.1701C20.9469 25.3353 20.9465 25.643 21.1289 25.8486C21.3147 26.0581 21.6459 26.1078 21.8909 26.1128C22.9029 26.1327 24.9248 26.1023 26.573 26.0734C27.7987 26.0543 28.9168 26.7602 29.4215 27.8776L30.6855 30.6764C30.8986 31.1483 30.6888 31.7036 30.2169 31.9167C30.0917 31.9732 29.9606 32 29.8316 32V32ZM21.4189 20.242H21.4195H21.4189Z" fill="white"/>
</g>
<defs>
<clipPath id="clip0_92_70">
<rect width="32" height="32" fill="white"/>
</clipPath>
</defs>
</svg>
