<svg width="29" height="29" viewBox="0 0 29 29" fill="none" xmlns="http://www.w3.org/2000/svg">
<g clip-path="url(#clip0_92_80)">
<path d="M26.4512 3.39844C26.9204 3.39844 27.3008 3.01805 27.3008 2.54883C27.3008 2.0796 26.9204 1.69922 26.4512 1.69922C25.9819 1.69922 25.6016 2.0796 25.6016 2.54883C25.6016 3.01805 25.9819 3.39844 26.4512 3.39844Z" fill="#525F7F"/>
<path d="M14.5566 29C20.9003 29 26.2933 24.8532 28.2307 19.1244C28.3517 18.7665 28.2219 18.3717 27.9121 18.1555C27.6022 17.9393 27.1869 17.9536 26.8927 18.1907C25.0609 19.6669 22.8517 20.4473 20.5039 20.4473C14.8509 20.4473 10.252 15.8736 10.252 10.252C10.252 6.77586 12.1033 3.44992 15.0834 1.57217C15.403 1.37076 15.5512 0.982545 15.4472 0.619365C15.3451 0.263152 15.0244 0.0150098 14.6557 0.00413477C14.6355 0.00260547 14.5997 0 14.5566 0C6.57745 0 0 6.51124 0 14.5C0 22.4859 6.57416 29 14.5566 29ZM11.9265 1.96843C9.75057 4.22584 8.55273 7.20118 8.55273 10.252C8.55273 16.8106 13.914 22.1465 20.5039 22.1465C22.2293 22.1465 23.933 21.7648 25.4879 21.0466C23.2173 24.871 19.0962 27.3008 14.5566 27.3008C7.46705 27.3008 1.69922 21.5584 1.69922 14.5C1.69922 8.33858 6.09368 3.18003 11.9265 1.96843Z" fill="#525F7F"/>
<path d="M16.2559 6.79688C17.6374 6.79688 18.8047 7.99001 18.8047 9.40234C18.8047 9.87155 19.1851 10.252 19.6543 10.252C20.1235 10.252 20.5039 9.87155 20.5039 9.40234C20.5039 7.99001 21.6711 6.79688 23.0527 6.79688C23.5219 6.79688 23.9023 6.41648 23.9023 5.94727C23.9023 5.47805 23.5219 5.09766 23.0527 5.09766C21.6473 5.09766 20.5039 3.95425 20.5039 2.54883C20.5039 2.07962 20.1235 1.69922 19.6543 1.69922C19.1851 1.69922 18.8047 2.07962 18.8047 2.54883C18.8047 3.95425 17.6613 5.09766 16.2559 5.09766C15.7866 5.09766 15.4062 5.47805 15.4062 5.94727C15.4062 6.41648 15.7866 6.79688 16.2559 6.79688ZM19.6543 5.09471C19.8996 5.4213 20.1908 5.71158 20.5182 5.95582C20.1907 6.20555 19.9028 6.49776 19.6543 6.83262C19.4058 6.49781 19.118 6.20566 18.7904 5.95582C19.1179 5.71158 19.409 5.4213 19.6543 5.09471Z" fill="#525F7F"/>
<path d="M28.1504 10.252C28.6196 10.252 29 9.87157 29 9.40234C29 8.93312 28.6196 8.55273 28.1504 8.55273C27.6812 8.55273 27.3008 8.93312 27.3008 9.40234C27.3008 9.87157 27.6812 10.252 28.1504 10.252Z" fill="#525F7F"/>
</g>
<defs>
<clipPath id="clip0_92_80">
<rect width="29" height="29" fill="white"/>
</clipPath>
</defs>
</svg>
