<svg width="30" height="30" viewBox="0 0 30 30" fill="none" xmlns="http://www.w3.org/2000/svg">
<rect x="1" y="1" width="28" height="28" rx="2" stroke="#525F7F" stroke-width="2"/>
<path d="M14.8941 7.56499L12.563 7.51119C12.5809 7.81603 12.5451 8.24639 12.5271 8.5871C12.4913 8.89193 12.4554 9.2147 12.4195 9.55541C12.1864 9.55541 11.9533 9.55541 11.7023 9.55541C10.6084 9.55541 9.03046 9.41195 8.40285 9.30436L8.45664 11.3844C9.29943 11.4203 10.6981 11.492 11.6306 11.492C11.8278 11.492 12.0071 11.492 12.2044 11.492C12.1326 12.2272 12.0788 12.9804 12.043 13.7514C9.53254 14.9349 7.63178 17.3378 7.63178 19.6509C7.63178 21.462 8.74355 22.251 10.0526 22.251C11.0029 22.251 11.9533 21.9641 12.832 21.5338C12.9037 21.7848 12.9934 22.0359 13.0651 22.269L15.1272 21.6414C14.9838 21.211 14.8403 20.7627 14.7148 20.3144C16.0776 19.1847 17.5121 17.3019 18.4805 14.8632C19.7177 15.3473 20.3454 16.2977 20.3454 17.3736C20.3454 19.1309 18.9467 20.8882 15.4859 21.2648L16.6694 23.1476C21.0806 22.4842 22.5689 20.0275 22.5689 17.4812C22.5689 15.4011 21.1881 13.7694 19.1081 13.0879C19.2157 12.7472 19.3591 12.3707 19.4308 12.1734L17.2432 11.6534C17.2252 11.9224 17.1535 12.3707 17.0818 12.7293C16.9742 12.7293 16.8666 12.7293 16.759 12.7293C15.8804 12.7293 14.9479 12.8548 14.0872 13.0521C14.1051 12.5141 14.1589 11.9583 14.2127 11.4203C16.4183 11.3306 18.8212 11.1155 20.5785 10.7927L20.5605 8.71262C18.588 9.17884 16.6514 9.41195 14.4638 9.50161C14.5176 9.14298 14.5893 8.82021 14.6431 8.51537C14.7148 8.24639 14.7865 7.92362 14.8941 7.56499ZM9.74772 19.1847C9.74772 18.1626 10.6443 16.7998 11.9892 15.8853C12.025 17.1226 12.1685 18.3599 12.3658 19.4716C11.7202 19.8482 11.0747 20.0634 10.5726 20.0634C9.99877 20.0634 9.74772 19.7585 9.74772 19.1847ZM14.0155 15.0066V14.9528C14.7148 14.7377 15.5397 14.5763 16.49 14.5583C15.8804 16.0108 15.0734 17.1046 14.2306 17.9833C14.0872 17.0867 14.0155 16.1005 14.0155 15.0066Z" fill="#525F7F"/>
</svg>
