<svg width="29" height="29" viewBox="0 0 29 29" fill="none" xmlns="http://www.w3.org/2000/svg">
<path d="M28.9999 16.527C28.986 13.2024 27.6647 10.6953 25.9264 10.6953C25.1231 10.6953 24.2572 11.1708 23.1609 11.7728C21.8197 12.5094 20.1505 13.4261 18.463 13.4261C16.7569 13.4261 15.3239 12.5622 14.7245 11.8525C16.1571 10.569 16.9935 8.73009 16.9935 6.79935C16.9935 3.05126 13.9442 0.00195312 10.1961 0.00195312C7.03457 0.00195312 4.37027 2.17151 3.61378 5.1H0.849674C0.380427 5.1 0 5.48043 0 5.94967C0 8.29222 1.90582 10.198 4.24837 10.198H4.31096C4.45779 10.4504 4.62087 10.6945 4.80106 10.9283C0.868254 14.2902 0.062423 20.9282 4.44334 25.2726C6.80124 27.6109 10.3083 28.9992 13.8453 28.9991C13.8828 28.9991 13.9207 28.999 13.9582 28.9987C16.6824 28.9759 19.1062 28.5626 21.1622 27.7703C26.2079 25.8258 29.0208 21.5307 28.9999 16.527V16.527ZM1.84493 6.79935H3.3987C3.3987 7.35022 3.4648 7.89067 3.5918 8.41248C2.77849 8.19542 2.12379 7.58575 1.84493 6.79935ZM13.9441 27.2994C13.9106 27.2997 13.8777 27.2998 13.8442 27.2998C10.7466 27.2997 7.68593 26.0949 5.63997 24.066C4.04201 22.4813 3.19738 20.5296 3.19738 18.4217V18.3946C3.19585 16.7824 3.62624 13.774 6.52584 11.7395C6.73253 11.5944 6.86406 11.3649 6.88463 11.1133C6.90519 10.8616 6.8128 10.6138 6.63239 10.437C3.37054 7.24123 5.66053 1.7013 10.1961 1.7013C13.0072 1.7013 15.2941 3.98828 15.2941 6.79935C15.2941 8.4361 14.4894 9.98625 13.1415 10.946C12.844 11.1579 12.7151 11.5361 12.8215 11.8854C13.2876 13.4179 15.7193 15.1255 18.4631 15.1255C20.5864 15.1255 22.4675 14.0924 23.979 13.2624C24.7196 12.8557 25.5591 12.3946 25.9264 12.3946C26.2752 12.3946 27.2893 13.8179 27.3006 16.5341C27.3221 21.6842 23.8246 27.2167 13.9441 27.2994V27.2994Z" fill="#525F7F"/>
<path d="M7.64655 6.79847C8.11581 6.79847 8.49622 6.41806 8.49622 5.9488C8.49622 5.47953 8.11581 5.09912 7.64655 5.09912C7.17729 5.09912 6.79688 5.47953 6.79688 5.9488C6.79688 6.41806 7.17729 6.79847 7.64655 6.79847Z" fill="#525F7F"/>
<path d="M20.0633 19.5227C20.1331 19.305 20.1122 19.0682 20.0054 18.866C19.1314 17.2131 16.9487 16.145 14.4448 16.145C12.9172 16.145 11.4696 16.5492 10.3687 17.2832C9.16174 18.0878 8.49707 19.1923 8.49707 20.3934C8.49707 21.5945 9.16174 22.699 10.3686 23.5036C11.4696 24.2375 12.9171 24.6418 14.4448 24.6418C16.9487 24.6418 19.1313 23.5737 20.0053 21.9207C20.1122 21.7185 20.1331 21.4818 20.0632 21.264C19.9934 21.0463 19.8387 20.8659 19.6341 20.7636L18.8937 20.3933L19.6341 20.0231C19.8387 19.9209 19.9934 19.7404 20.0633 19.5227V19.5227ZM14.4448 22.9424C12.1419 22.9424 10.1964 21.7751 10.1964 20.3934C10.1964 19.0117 12.1419 17.8444 14.4448 17.8444C15.8436 17.8444 17.1511 18.2835 17.9397 18.9705L16.6138 19.6334C16.326 19.7773 16.1441 20.0715 16.1441 20.3934C16.1441 20.7152 16.326 21.0094 16.6138 21.1534L17.9397 21.8164C17.1511 22.5032 15.8436 22.9424 14.4448 22.9424V22.9424Z" fill="#525F7F"/>
</svg>
