<svg width="30" height="40" viewBox="0 0 30 40" fill="none" xmlns="http://www.w3.org/2000/svg">
<path d="M29.6289 11.5259C30.0114 11.2703 30.1155 10.7527 29.8599 10.3702C29.6028 9.98446 29.0835 9.8836 28.7043 10.1391C27.7934 10.7465 26.7519 11.1049 25.8243 11.3253C25.4761 10.6348 25.1322 9.9836 24.8033 9.38821C25.7152 8.80259 26.6941 8.33251 27.4999 8.33251C27.9605 8.33251 28.3332 7.95978 28.3332 7.49915C28.3332 7.03853 27.9605 6.6658 27.4999 6.6658C26.3288 6.6658 25.0743 7.24837 23.9766 7.94024C23.297 6.78837 22.7509 5.94994 22.4983 5.57369C22.4266 1.24089 20.5858 0.194335 20.3726 0.0869131C20.052 -0.070977 19.663 -0.0107428 19.4107 0.243163C18.1851 1.46878 17.3876 2.68948 17.01 3.33245H12.9899C12.6123 2.68956 11.8147 1.46878 10.5892 0.243163C10.3369 -0.0107428 9.94947 -0.070977 9.62721 0.0869131C9.414 0.194335 7.57315 1.24089 7.50159 5.57369C7.24893 5.95002 6.70292 6.7883 6.02331 7.94017C4.92574 7.24822 3.67113 6.66572 2.50004 6.66572C2.03942 6.66572 1.66669 7.03845 1.66669 7.49907C1.66669 7.9597 2.03942 8.33243 2.50004 8.33243C3.3041 8.33243 4.2834 8.80321 5.19597 9.38938C4.86699 9.98508 4.52293 10.6365 4.17457 11.3274C3.24949 11.1074 2.20989 10.7484 1.29567 10.1391C0.916456 9.88524 0.395599 9.98617 0.140053 10.3702C-0.115493 10.7527 -0.0113527 11.2703 0.371146 11.5259C1.3527 12.18 2.43864 12.5938 3.43012 12.86C1.65755 16.6654 5.34896e-05 21.4029 5.34896e-05 25.8328C5.34896e-05 32.7648 5.82683 38.6748 6.07589 38.9222C6.16706 39.0134 6.27933 39.0834 6.40144 39.124C6.50886 39.1599 9.08041 39.9997 13.3334 39.9997C13.5547 39.9997 13.7663 39.9119 13.9226 39.7556L14.5118 39.1664H15.4884L16.0776 39.7556C16.2338 39.9119 16.4454 39.9997 16.6668 39.9997C20.9197 39.9997 23.4913 39.1599 23.5987 39.124C23.7208 39.0833 23.8331 39.0133 23.9243 38.9222C24.1732 38.6748 29.9999 32.7649 29.9999 25.8328C29.9999 21.4029 28.3425 16.6654 26.5699 12.86C27.5614 12.5937 28.6473 12.1801 29.6289 11.5259ZM28.3333 25.8332C28.3333 31.507 23.7516 36.6713 22.8858 37.5974C22.2672 37.7715 20.1547 38.2957 17.0102 38.3315L16.4226 37.7439C16.2663 37.5876 16.0548 37.4998 15.8334 37.4998H14.1667C13.9454 37.4998 13.7338 37.5876 13.5775 37.7439L12.9899 38.3315C9.84541 38.2957 7.73112 37.7715 7.11433 37.5974C6.24847 36.6745 1.66677 31.5199 1.66677 25.8332C1.66677 21.5827 3.36754 16.9146 5.13254 13.2035C5.99894 13.3237 6.60784 13.3332 6.66675 13.3332C7.12737 13.3332 7.50011 12.9605 7.50011 12.4998C7.50011 12.0392 7.12737 11.6665 6.66675 11.6665C6.65761 11.6665 6.35964 11.6598 5.9148 11.618C6.13714 11.1863 6.35527 10.7755 6.56862 10.3846C7.06667 10.7876 7.48839 11.1669 7.74425 11.4223C7.90698 11.5851 8.12026 11.6665 8.33346 11.6665C8.54666 11.6665 8.75987 11.5851 8.92268 11.4223C9.24822 11.0968 9.24822 10.5695 8.92268 10.244C8.78221 10.1035 8.20737 9.54391 7.40128 8.90821C8.32455 7.3254 8.99682 6.33892 9.01869 6.30681C9.11471 6.16845 9.16682 6.00244 9.16682 5.83314C9.16682 3.69776 9.63072 2.57628 9.98228 2.03105C11.1493 3.3494 11.7482 4.52619 11.7548 4.5408C11.8962 4.8208 12.1859 4.99986 12.5 4.99986H17.5C17.8141 4.99986 18.1038 4.8208 18.2455 4.54088C18.2519 4.52619 18.8509 3.35112 20.0147 2.03441C20.3744 2.58456 20.8333 3.70596 20.8333 5.83322C20.8333 6.00252 20.8854 6.16853 20.9815 6.30689C21.0033 6.339 21.6759 7.32509 22.5996 8.90782C21.7932 9.54368 21.2179 10.1036 21.0775 10.2441C20.7519 10.5696 20.7519 11.097 21.0775 11.4224C21.2402 11.5852 21.4535 11.6666 21.6667 11.6666C21.8799 11.6666 22.0931 11.5852 22.2559 11.4224C22.5116 11.1667 22.9335 10.7867 23.4318 10.3832C23.6451 10.7741 23.8635 11.1849 24.0859 11.6166C23.6398 11.6591 23.3409 11.6666 23.3317 11.6666C22.8727 11.6682 22.5 12.0409 22.5 12.5016C22.5016 12.9605 22.8727 13.3333 23.3333 13.3333C23.3922 13.3333 24.002 13.3237 24.8689 13.2034C26.6335 16.9129 28.3333 21.5798 28.3333 25.8332Z" fill="#525F7F"/>
<path d="M14.9996 13.333C8.56736 13.333 3.33301 18.5674 3.33301 24.9996C3.33301 31.4318 8.56736 36.6662 14.9996 36.6662C21.4318 36.6662 26.6662 31.4318 26.6662 24.9996C26.6662 18.5674 21.4318 13.333 14.9996 13.333ZM14.9996 34.9996C9.48533 34.9996 4.99964 30.5139 4.99964 24.9996C4.99964 19.4853 9.48533 14.9996 14.9996 14.9996C20.5139 14.9996 24.9996 19.4853 24.9996 24.9996C24.9996 30.5139 20.5139 34.9996 14.9996 34.9996Z" fill="#525F7F"/>
<path d="M14.4109 11.4224C14.5737 11.5851 14.7869 11.6665 15.0001 11.6665C15.2133 11.6665 15.4266 11.5851 15.5894 11.4224L16.4227 10.589C16.6604 10.3513 16.7319 9.99166 16.6034 9.6808C16.4748 9.36994 16.1705 9.1665 15.8336 9.1665H14.1669C13.83 9.1665 13.5257 9.36994 13.3971 9.6808C13.2685 9.99166 13.3402 10.3513 13.5778 10.589L14.4109 11.4224Z" fill="#525F7F"/>
<path d="M17.0393 19.2543L15.3727 18.4209C15.1383 18.3037 14.8616 18.3037 14.6272 18.4209L12.9606 19.2543C12.5488 19.461 12.3828 19.9607 12.5878 20.3725C12.7946 20.7826 13.2926 20.9519 13.706 20.7452L14.9999 20.0974L16.2939 20.7452C16.4144 20.8054 16.5414 20.8331 16.6667 20.8331C16.971 20.8331 17.2656 20.6638 17.4121 20.3725C17.6171 19.9607 17.4511 19.461 17.0393 19.2543Z" fill="#525F7F"/>
<path d="M11.2063 21.7543L9.53967 20.9209C9.3053 20.8037 9.02858 20.8037 8.79421 20.9209L7.12757 21.7543C6.71578 21.961 6.54976 22.4607 6.75484 22.8725C6.96156 23.2826 7.4596 23.4519 7.87304 23.2452L9.16702 22.5974L10.461 23.2452C10.5815 23.3054 10.7084 23.3331 10.8337 23.3331C11.1381 23.3331 11.4327 23.1638 11.5792 22.8725C11.784 22.4607 11.618 21.961 11.2063 21.7543Z" fill="#525F7F"/>
<path d="M20.4602 20.9209L18.7936 21.7543C18.3818 21.961 18.2158 22.4607 18.4209 22.8725C18.6276 23.2826 19.1273 23.4519 19.5391 23.2452L20.833 22.5974L22.127 23.2452C22.2475 23.3054 22.3744 23.3331 22.4997 23.3331C22.8041 23.3331 23.0987 23.1638 23.2452 22.8725C23.4503 22.4607 23.2843 21.961 22.8725 21.7543L21.2058 20.9209C20.9713 20.8037 20.6946 20.8037 20.4602 20.9209Z" fill="#525F7F"/>
</svg>
