<svg width="30" height="30" viewBox="0 0 30 30" fill="none" xmlns="http://www.w3.org/2000/svg">
<path d="M28.865 5.77921L28.865 5.77923C29.2753 6.18982 29.5 6.7327 29.5 7.31303C29.5 7.893 29.2756 8.4355 28.8658 8.84601C28.8655 8.84626 28.8653 8.84651 28.865 8.84676L10.7824 26.7831L10.7822 26.7833C10.7625 26.8029 10.738 26.8175 10.7097 26.8258C10.7095 26.8258 10.7093 26.8259 10.7092 26.8259L1.37787 29.4943C1.3777 29.4943 1.37753 29.4944 1.37737 29.4944C1.36198 29.4987 1.34608 29.5009 1.33102 29.5009C1.28738 29.5009 1.24522 29.4839 1.21333 29.452L1.21329 29.4519C1.17004 29.4086 1.15394 29.3455 1.17043 29.2877L1.17045 29.2877L3.83684 19.9471C3.83689 19.947 3.83694 19.9468 3.83699 19.9466C3.84538 19.9179 3.86011 19.8933 3.87959 19.8736L3.8798 19.8734L21.799 1.77745C21.7992 1.77722 21.7994 1.777 21.7996 1.77677C22.6163 0.960251 24.0523 0.962429 24.8647 1.7755L25.2184 1.4221L24.8647 1.77551L28.865 5.77921ZM18.8934 5.92039L18.5383 5.56525L18.1848 5.92198L5.24193 18.9812L4.39756 19.8332H5.59706H6.66477C6.72771 19.8332 6.78547 19.8685 6.81423 19.9258C6.81424 19.9259 6.81425 19.9259 6.81426 19.9259L7.73353 21.7651L8.04373 22.3857L8.53433 21.8951L21.3476 9.0817L21.7012 8.72815L21.3476 8.37459L18.8934 5.92039ZM1.82102 28.2259L1.57383 29.0913L2.43914 28.844L5.47914 27.9755L6.29623 27.7421L5.69534 27.1412L3.52379 24.9697L2.92289 24.3688L2.68947 25.1859L1.82102 28.2259ZM10.1357 26.6453L10.0684 26.1645H10.4983V24.4124V24.1034L10.2219 23.9652L7.92353 22.816L7.92344 22.816C7.89133 22.7999 7.86502 22.7736 7.84897 22.7415L7.84893 22.7414L6.69977 20.443L6.56157 20.1666H6.25255H4.50047H4.1233L4.0197 20.5293L3.10844 23.7193L3.02763 24.0021L3.23565 24.2101L6.45486 27.4293L6.66288 27.6374L6.94575 27.5566L10.1357 26.6453ZM10.8319 25.068V26.2675L11.6838 25.4231L24.743 12.4803L25.0998 12.1268L24.7446 11.7716L22.2904 9.31742L21.9369 8.96387L21.5833 9.31742L8.76999 22.1307L8.27939 22.6213L8.9 22.9315L10.7392 23.8508C10.7393 23.8509 10.7394 23.8509 10.7395 23.851C10.7966 23.8798 10.8319 23.9375 10.8319 24.0003V25.068ZM28.6299 8.62819L28.6314 8.6266C28.9755 8.2825 29.1666 7.82054 29.1666 7.33222C29.1666 6.84334 28.9751 6.38155 28.6295 6.0359L24.6292 2.03557C23.9299 1.33632 22.7357 1.33632 22.0365 2.03556L22.0349 2.03715L19.1233 4.97496L18.7729 5.32851L19.1248 5.68048L24.9845 11.5402L25.3365 11.8921L25.69 11.5417L28.6299 8.62819Z" fill="white" stroke="white"/>
</svg>
