<svg width="30" height="30" viewBox="0 0 30 30" fill="none" xmlns="http://www.w3.org/2000/svg">
<path d="M0.193008 29.67C0.359862 29.8785 0.612089 29.9998 0.878963 29.9998H6.21096C6.65911 29.9998 7.03562 29.6627 7.0846 29.2173L7.40847 26.2819C9.07586 27.5419 11.125 28.242 13.2422 28.242H16.7578C18.8752 28.242 20.9243 27.5419 22.5917 26.2819L22.9154 29.2173C22.9646 29.6627 23.3411 29.9998 23.789 29.9998H29.121C29.3879 29.9998 29.6403 29.8785 29.8072 29.6702C29.974 29.4617 30.037 29.1889 29.9786 28.9284L26.4646 13.2597L29.9351 4.7257C30.0924 4.33912 29.9562 3.89532 29.609 3.66369C29.262 3.43184 28.7996 3.47624 28.503 3.76966L24.4413 7.78675C23.6626 4.60691 20.9566 2.17574 17.6369 1.80701V0.878901C17.6369 0.393675 17.2435 0 16.758 0H13.2424C12.7569 0 12.3635 0.393675 12.3635 0.878901V1.80701C9.04359 2.17574 6.33754 4.60691 5.55888 7.78675L1.49717 3.76966C1.20054 3.47624 0.738202 3.43184 0.391219 3.66346C0.0440071 3.89532 -0.0924057 4.33912 0.0648353 4.7257L3.53535 13.2597L0.0213479 28.9284C-0.0370166 29.1889 0.0261544 29.4617 0.193008 29.67V29.67ZM21.2438 14.0624L21.8254 19.3358H18.8797C18.275 18.7675 16.7949 17.578 15 17.578C13.2051 17.578 11.7249 18.7675 11.1205 19.3358H8.17453L8.75612 14.0624H21.2438ZM16.7578 26.4842H13.2422C11.1411 26.4842 9.12164 25.6415 7.64238 24.1602L7.98067 21.0936H11.4844C11.7325 21.0936 11.9707 20.9867 12.1374 20.803C12.1506 20.7883 13.4852 19.3358 15 19.3358C16.5149 19.3358 17.8493 20.7883 17.8608 20.8009C18.0276 20.9872 18.2656 21.0936 18.5156 21.0936H22.0193L22.3576 24.1602C20.8783 25.6413 18.8589 26.4842 16.7578 26.4842V26.4842ZM24.5763 28.242C24.4786 27.3574 23.1037 14.8907 23.0124 14.0624H24.8432L28.0231 28.242H24.5763ZM22.8469 8.78901H17.6367V3.57878C20.3269 3.96536 22.4603 6.09875 22.8469 8.78901ZM14.1211 1.7578H15.8789V8.78901H14.1211V1.7578ZM12.3633 3.57878V8.78901H7.15304C7.53962 6.09875 9.67301 3.96536 12.3633 3.57878ZM5.59299 10.2928C5.75206 10.45 5.97613 10.5468 6.21096 10.5468H23.789C24.0154 10.5468 24.2408 10.4571 24.407 10.2928L26.6928 8.03211L24.9554 12.3046C23.4342 12.3046 5.9695 12.3046 5.04459 12.3046L3.30716 8.03211L5.59299 10.2928ZM5.15674 14.0617H6.98756C6.93171 14.5634 5.47969 27.7344 5.42384 28.242H1.9769L5.15674 14.0617Z" fill="#525F7F"/>
</svg>
