<svg width="40" height="31" viewBox="0 0 40 31" fill="none" xmlns="http://www.w3.org/2000/svg">
<path d="M1 29.9996V28.2937C1 21.6988 6.34625 16.3525 12.9412 16.3525C19.5361 16.3525 24.8824 21.6988 24.8824 28.2937V29.9996" stroke="white" stroke-width="2" stroke-linecap="round"/>
<path d="M21.4707 19.7648C21.4707 15.0541 25.2895 11.2354 30.0001 11.2354C34.7107 11.2354 38.5295 15.0541 38.5295 19.7648V20.6177" stroke="white" stroke-width="2" stroke-linecap="round"/>
<path d="M12.9407 16.3531C16.7092 16.3531 19.7642 13.298 19.7642 9.52958C19.7642 5.76105 16.7092 2.70605 12.9407 2.70605C9.17218 2.70605 6.11719 5.76105 6.11719 9.52958C6.11719 13.298 9.17218 16.3531 12.9407 16.3531Z" stroke="white" stroke-width="2" stroke-linecap="round" stroke-linejoin="round"/>
<path d="M30.0005 11.2353C32.8269 11.2353 35.1181 8.94404 35.1181 6.11765C35.1181 3.29126 32.8269 1 30.0005 1C27.174 1 24.8828 3.29126 24.8828 6.11765C24.8828 8.94404 27.174 11.2353 30.0005 11.2353Z" stroke="white" stroke-width="2" stroke-linecap="round" stroke-linejoin="round"/>
</svg>
